Coordinates
version=1
nRows=11
nColumns=42
inDegrees=yes

Units are S.I. units (second, meters, Newtons, ...)
If the header above contains a line with 'inDegrees', this indicates whether rotational values are in degrees (yes) or radians (no).

endheader
time	pelvis_tilt	pelvis_list	pelvis_rotation	pelvis_tx	pelvis_ty	pelvis_tz	hip_flexion_r	hip_adduction_r	hip_rotation_r	knee_angle_r	knee_adduction_r	knee_angle_r_beta	ankle_angle_r	subtalar_angle_r	mtp_angle_r	hip_flexion_l	hip_adduction_l	hip_rotation_l	knee_angle_l	knee_adduction_l	knee_angle_l_beta	ankle_angle_l	subtalar_angle_l	mtp_angle_l	lumbar_extension	lumbar_bending	lumbar_rotation	arm_flex_r	arm_add_r	arm_rot_r	elbow_flex_r	pro_sup_r	wrist_flex_r	wrist_dev_r	arm_flex_l	arm_add_l	arm_rot_l	elbow_flex_l	pro_sup_l	wrist_flex_l	wrist_dev_l
      1.27000000	      1.86255984	     -1.71903207	      5.95366076	     -0.34872666	      0.92983219	     -0.11657963	     21.06477298	     -2.18711090	     -5.56390132	     19.25465642	      6.53272376	      0.33605715	     -5.28161435	    -18.00194737	     -7.57158200	    -12.34274632	     -2.45253710	      5.91155840	      2.07364234	      5.52611848	      0.03619189	      6.80236959	     -6.67676286	     -7.57158200	    -14.86732256	      1.75491837	     -7.07554140	    -14.69073948	     -7.56934728	     -4.14198646	     29.39257443	     90.00000001	      0.00000000	      0.00000000	      8.91100221	    -18.31832219	      5.50251075	     44.04474122	     90.00000001	      0.00000000	      0.00000000
      1.28000000	      1.84678410	     -1.36751546	      5.91044733	     -0.33767894	      0.92708821	     -0.11656001	     21.53446025	     -2.36198749	     -6.13413063	     16.94342301	      6.06848423	      0.29571852	     -5.50004451	    -17.28192085	     -7.57051221	    -12.95574190	     -2.07896222	      6.36761232	      2.42249714	      5.46835332	      0.04228055	      7.49500881	     -6.85126913	     -7.57051221	    -14.86094418	      1.50883095	     -7.29529103	    -14.78105750	     -7.47700344	     -4.07014872	     29.28093952	     90.00000001	      0.00000000	      0.00000000	      9.57830970	    -18.63750869	      5.82285541	     44.53800936	     90.00000001	      0.00000000	      0.00000000
      1.29000000	      1.85710621	     -1.00420705	      5.88067204	     -0.32658110	      0.92434527	     -0.11642678	     21.97053424	     -2.50531224	     -6.87562700	     14.80321736	      5.53200307	      0.25836488	     -5.60115914	    -15.93858766	     -7.56429363	    -13.78132804	     -1.73625098	      7.91684823	      2.39505276	      5.46004309	      0.04180156	      7.68136081	     -9.30279111	     -7.56429363	    -14.92202415	      1.21264700	     -7.57422408	    -14.67163395	     -7.35654334	     -4.03872428	     28.84584186	     90.00000001	      0.00000000	      0.00000000	      9.95901872	    -19.67728556	      7.74850611	     45.79193100	     90.00000001	      0.00000000	      0.00000000
      1.30000000	      1.87083519	     -0.65343820	      5.87842363	     -0.31519447	      0.92159074	     -0.11640283	     22.49181582	     -2.68452521	     -8.75049911	     13.12916382	      4.84498368	      0.22914714	     -4.88502261	    -12.61607713	     -7.55897396	    -14.50084002	     -1.41688513	      8.87743608	      2.62974401	      5.47122586	      0.04589769	      8.15871380	    -10.34930981	     -7.55897396	    -14.97410739	      0.94452423	     -7.86473571	    -14.68164470	     -7.25437164	     -4.06515652	     28.69427454	     90.00000001	      0.00000000	      0.00000000	     10.38244454	    -20.05598736	      7.97141520	     46.54869708	     90.00000001	      0.00000000	      0.00000000
      1.31000000	      1.88994008	     -0.34400877	      5.93482546	     -0.30360894	      0.91885871	     -0.11638102	     23.08514382	     -2.90060637	    -11.70823192	     11.90897294	      4.13987639	      0.20785079	     -3.64670272	     -7.37077536	     -7.55423192	    -15.21892291	     -1.16253022	      9.81594472	      2.89385118	      5.46806793	      0.05050723	      8.57376291	    -11.25388387	     -7.55423192	    -15.03029645	      0.72000543	     -8.23213213	    -14.64680493	     -7.18519314	     -4.12218649	     28.56990636	     90.00000001	      0.00000000	      0.00000000	     10.69913925	    -20.48910472	      8.18313300	     47.44376731	     90.00000001	      0.00000000	      0.00000000
      1.32000000	      1.93632755	     -0.06177074	      5.99790117	     -0.29177015	      0.91620448	     -0.11630818	     23.65968328	     -3.10645196	    -15.12523814	     11.02686842	      3.47440378	      0.19245516	     -2.40182117	     -1.55566313	     -7.54982670	    -15.97823559	     -0.97964007	     10.56862016	      3.15202039	      5.51651465	      0.05501313	      8.96084670	    -11.89042551	     -7.54982670	    -15.08950743	      0.52458591	     -8.61922129	    -14.64212807	     -7.11999622	     -4.23433937	     28.51073433	     90.00000001	      0.00000000	      0.00000000	     10.87904412	    -20.84910396	      8.26837151	     48.20792084	     90.00000001	      0.00000000	      0.00000000
      1.33000000	      1.79972657	      0.24603855	      5.91036470	     -0.28003630	      0.91344621	     -0.11604143	     24.17336737	     -3.18978645	    -16.18980825	      9.92562776	      3.21009098	      0.17323488	     -2.39479119	     -1.21740925	     -7.54939237	    -16.46559971	     -0.72113576	     10.68608819	      3.56659373	      5.59099880	      0.06224880	      9.27254486	    -11.77126760	     -7.54939237	    -14.97927953	      0.24350148	     -8.76971153	    -14.74546566	     -7.05909047	     -4.22838750	     28.53482096	     90.00000001	      0.00000000	      0.00000000	     11.30944643	    -20.99806239	      8.17377115	     48.49956494	     90.00000001	      0.00000000	      0.00000000
      1.34000000	      1.92238522	      0.40136173	      6.13804167	     -0.26771405	      0.91102290	     -0.11588233	     24.66205653	     -3.46667879	    -21.08400949	      9.85877690	      2.68356176	      0.17206812	     -1.15278665	      6.92504802	     -7.54584004	    -17.35172335	     -0.81839462	     11.78009415	      3.75787066	      5.73898714	      0.06558722	      9.55523339	    -12.73849444	     -7.54584004	    -15.11621974	      0.20509942	     -9.38506970	    -14.55222978	     -6.98019083	     -4.47962313	     28.29637370	     90.00000001	      0.00000000	      0.00000000	     10.89067085	    -21.56705222	      8.10096958	     50.13530290	     90.00000001	      0.00000000	      0.00000000
      1.35000000	      1.85367010	      0.57912440	      6.14959244	     -0.25554618	      0.90848730	     -0.11554103	     24.92649118	     -3.43807029	    -22.05536485	      9.25888771	      2.57746875	      0.16159808	     -1.16368754	      7.09944145	     -7.54537486	    -17.93083761	     -0.77565761	     11.99469945	      4.16315304	      5.83071725	      0.07266073	      9.85809265	    -12.66631222	     -7.54537486	    -15.04783530	      0.09304744	     -9.61798554	    -14.59060304	     -6.96220840	     -4.50381718	     28.33447754	     90.00000001	      0.00000000	      0.00000000	     11.14149598	    -21.67750538	      8.02078229	     50.32096053	     90.00000001	      0.00000000	      0.00000000
      1.36000000	      1.80579988	      0.72343983	      6.22482066	     -0.24309669	      0.90604735	     -0.11519317	     25.29074892	     -3.53231618	    -24.22833936	      9.36802641	      2.38265232	      0.16350291	     -1.08878410	      9.87172484	     -7.54292567	    -18.60209186	     -0.84527069	     12.60304789	      4.42113049	      5.99521040	      0.07716328	     10.04574694	    -13.10757559	     -7.54292567	    -15.00429685	      0.02925627	    -10.08246468	    -14.43995788	     -6.94350065	     -4.76464027	     28.22389712	     90.00000001	      0.00000000	      0.00000000	     10.66159800	    -22.02455972	      7.62080655	     51.64672353	     90.00000001	      0.00000000	      0.00000000
      1.37000000	      1.62982826	      0.84559319	      6.13127288	     -0.23057445	      0.90355924	     -0.11480745	     25.58038592	     -3.45260655	    -24.19636535	      9.41864986	      2.41519396	      0.16438645	     -1.08560960	      9.84981943	     -7.54274744	    -19.08388740	     -0.84260056	     12.60598407	      4.81303818	      6.11500458	      0.08400336	     10.03498180	    -12.89429440	     -7.54274744	    -14.76456705	     -0.01952286	    -10.23027071	    -14.45392250	     -6.96953460	     -4.77368604	     28.28558772	     90.00000001	      0.00000000	      0.00000000	     10.73388727	    -22.03159905	      7.60567973	     51.71188582	     90.00000001	      0.00000000	      0.00000000
